# xmcd
#
# Track frame offsets:
#	150
#	18227
#	32131
#	47264
#	61901
#	78398
#	93099
#	105291
#	123462
#	137603
#	151012
#	167767
#	181622
#	199840
#	216376
#
# Disc length: 3122 seconds
#
# Revision: 0
# Processed by: cddbd v1.5.2PL0 Copyright (c) Steve Scherf et al.
# Submitted via: audiograbber 1.83.01
#
DISCID=b10c300f
DTITLE=An Evening With - Snowy Robson
DYEAR=1900
DGENRE=Country
TTITLE0=18 Wheeler
TTITLE1=All Of Me
TTITLE2=Mr Bojangles
TTITLE3=Always On My Mind
TTITLE4=Bobbie McGee
TTITLE5=He'll Have To Go
TTITLE6=King Of The Road
TTITLE7=The Last Farewell
TTITLE8=Highwayman
TTITLE9=The Rose
TTITLE10=Ride em Cowboy
TTITLE11=Desperado
TTITLE12=My Sweet Lady
TTITLE13=When This Old Hat Was New
TTITLE14=What A Wonderful World
EXTD=
EXTT0=
EXTT1=
EXTT2=
EXTT3=
EXTT4=
EXTT5=
EXTT6=
EXTT7=
EXTT8=
EXTT9=
EXTT10=
EXTT11=
EXTT12=
EXTT13=
EXTT14=
PLAYORDER=
